<svg version="1.1" id="Layer_1" xmlns="http://www.w3.org/2000/svg" xmlns:xlink="http://www.w3.org/1999/xlink" x="0px" y="0px"
	 width="100%" viewBox="0 0 128 128" enable-background="new 0 0 128 128" xml:space="preserve">
<path fill="#040404" opacity="1.000000" stroke="none" 
	d="
M57.000000,1.000000 
	C61.025501,1.000000 65.051003,1.000000 69.664612,1.368189 
	C74.504860,3.441381 78.758980,5.141462 83.008759,6.852321 
	C95.142128,11.736926 102.302788,20.769217 106.195648,33.148590 
	C108.145157,39.348053 111.549805,45.119270 114.565491,50.944832 
	C116.983818,55.616432 118.758217,60.026730 117.304413,65.634514 
	C116.674683,68.063637 117.997520,71.923012 119.794022,73.890190 
	C126.112137,80.808540 127.158554,84.644279 123.553841,93.193001 
	C120.763992,99.809219 121.841484,101.517944 128.738678,102.128586 
	C125.644424,107.019707 121.876610,107.886497 116.969772,104.595779 
	C120.329430,113.033302 120.272972,113.650520 116.268845,115.758598 
	C116.194435,107.577988 114.457840,105.284096 107.012115,104.739861 
	C108.112946,108.386589 109.114487,111.704361 110.252541,115.474396 
	C107.514893,115.474396 104.265381,115.474396 99.553772,115.474396 
	C102.000435,118.318588 103.928276,120.559662 106.079872,123.060837 
	C104.595238,124.796608 102.797623,126.898308 101.000000,129.000000 
	C98.299927,129.000000 95.599846,129.000000 92.538589,128.650085 
	C90.339188,126.134583 88.500969,123.968979 86.662750,121.803375 
	C86.108498,121.876717 85.554253,121.950066 85.000000,122.023415 
	C85.000000,124.348946 85.000000,126.674469 85.000000,129.000000 
	C84.250000,129.000000 83.500000,129.000000 82.294678,128.637527 
	C82.378242,125.122993 82.824623,121.950974 83.498421,118.828018 
	C83.796783,117.445107 85.011276,116.168427 85.031654,114.831673 
	C85.171494,105.653809 85.105095,96.472794 85.105095,87.012535 
	C72.081535,99.596352 58.390472,105.115799 43.876015,87.510872 
	C44.496315,93.582779 45.396370,98.532761 45.405842,103.484451 
	C45.417130,109.381989 44.396252,115.255280 48.136982,120.610687 
	C48.932957,121.750229 48.918434,123.994339 48.369305,125.366066 
	C47.923286,126.480240 46.116966,127.049866 45.514397,127.456139 
	C45.035870,124.290352 44.701717,122.079697 44.196041,118.734299 
	C35.152740,130.433945 28.483318,130.377975 24.412680,120.741501 
	C26.420996,118.263985 28.164051,116.113701 30.356991,113.408432 
	C25.679214,113.408432 22.435884,113.408432 19.958981,113.408432 
	C20.975237,109.551743 21.864632,106.176491 22.754026,102.801231 
	C22.190672,102.458740 21.627319,102.116241 21.063967,101.773743 
	C19.045889,103.280266 16.426197,104.409225 15.177612,106.398682 
	C13.909060,108.419952 13.992678,111.289841 13.408853,114.158020 
	C8.054816,110.710968 12.071593,106.734802 13.022259,102.909691 
	C6.608537,105.658836 5.428311,105.338760 1.462933,99.950470 
	C8.064083,98.990936 9.399108,97.136337 6.728502,91.756226 
	C2.815156,83.872543 4.206319,77.594917 10.546335,71.597832 
	C12.298110,69.940804 13.427464,66.047386 12.787507,63.753319 
	C11.228623,58.165165 13.036858,53.738274 15.405238,49.041973 
	C18.503424,42.898525 21.817484,36.773933 24.040018,30.298471 
	C28.109592,18.441553 35.129753,9.616632 46.907677,4.893821 
	C50.254158,3.551919 53.634945,2.295578 57.000000,1.000000 
M46.366589,84.239609 
	C47.180218,83.970634 47.993847,83.701668 48.779690,83.441879 
	C48.606438,85.199883 47.762024,87.178520 48.414745,88.206947 
	C52.886520,95.252640 64.299599,97.695404 71.542702,94.149399 
	C86.241203,86.953438 90.102745,73.955109 90.983505,59.249542 
	C91.058929,57.990223 90.000641,56.543636 89.196716,55.370667 
	C84.493164,48.507889 81.755112,41.097980 82.091934,32.632378 
	C82.501198,22.345793 78.784561,18.705826 68.563309,19.039114 
	C67.604294,19.070385 66.643379,19.043280 65.631927,19.043280 
	C65.304924,17.122667 65.001732,15.341945 64.468643,12.210899 
	C63.824837,16.141045 63.405563,18.700539 62.968693,21.367434 
	C62.135773,21.184309 61.673309,21.123180 61.237366,20.980843 
	C50.916725,17.611172 48.000328,20.013464 47.769642,30.721334 
	C47.657963,35.905186 47.370159,42.086060 44.599468,46.002674 
	C38.898540,54.061428 39.072872,62.049995 41.064949,70.780731 
	C41.690308,73.521538 41.509449,76.468674 42.304993,79.140533 
	C42.850986,80.974274 44.445728,82.495750 46.366589,84.239609 
z"/>
<path fill="#FBFBFB" opacity="1.000000" stroke="none" 
	d="
M1.001000,99.910301 
	C5.428311,105.338760 6.608537,105.658836 13.022259,102.909691 
	C12.071593,106.734802 8.054816,110.710968 13.408853,114.158020 
	C13.992678,111.289841 13.909060,108.419952 15.177612,106.398682 
	C16.426197,104.409225 19.045889,103.280266 21.063967,101.773743 
	C21.627319,102.116241 22.190672,102.458740 22.754026,102.801231 
	C21.864632,106.176491 20.975237,109.551743 19.958981,113.408432 
	C22.435884,113.408432 25.679214,113.408432 30.356991,113.408432 
	C28.164051,116.113701 26.420996,118.263985 24.412680,120.741501 
	C28.483318,130.377975 35.152740,130.433945 44.196041,118.734299 
	C44.701717,122.079697 45.035870,124.290352 45.514397,127.456139 
	C46.116966,127.049866 47.923286,126.480240 48.369305,125.366066 
	C48.918434,123.994339 48.932957,121.750229 48.136982,120.610687 
	C44.396252,115.255280 45.417130,109.381989 45.405842,103.484451 
	C45.396370,98.532761 44.496315,93.582779 43.876015,87.510872 
	C58.390472,105.115799 72.081535,99.596352 85.105095,87.012535 
	C85.105095,96.472794 85.171494,105.653809 85.031654,114.831673 
	C85.011276,116.168427 83.796783,117.445107 83.498421,118.828018 
	C82.824623,121.950974 82.378242,125.122993 81.919678,128.637527 
	C55.107826,129.000000 28.215656,129.000000 1.000000,129.000000 
	C1.000000,119.648254 1.000000,110.292786 1.029472,100.447174 
	C1.058943,99.957039 1.001000,99.910301 1.001000,99.910301 
z"/>
<path fill="#FDFDFD" opacity="1.000000" stroke="none" 
	d="
M128.998993,101.828163 
	C121.841484,101.517944 120.763992,99.809219 123.553841,93.193001 
	C127.158554,84.644279 126.112137,80.808540 119.794022,73.890190 
	C117.997520,71.923012 116.674683,68.063637 117.304413,65.634514 
	C118.758217,60.026730 116.983818,55.616432 114.565491,50.944832 
	C111.549805,45.119270 108.145157,39.348053 106.195648,33.148590 
	C102.302788,20.769217 95.142128,11.736926 83.008759,6.852321 
	C78.758980,5.141462 74.504860,3.441381 70.126358,1.368189 
	C89.612740,1.000000 109.225487,1.000000 129.000000,1.000000 
	C129.000000,34.354053 129.000000,67.708366 128.999496,101.488373 
	C128.998993,101.914070 128.998993,101.828163 128.998993,101.828163 
z"/>
<path fill="#FDFDFD" opacity="1.000000" stroke="none" 
	d="
M1.462933,99.950470 
	C1.001000,99.910301 1.058943,99.957039 1.029472,99.978516 
	C1.000000,67.093391 1.000000,34.186790 1.000000,1.000000 
	C19.353277,1.000000 37.707981,1.000000 56.531342,1.000000 
	C53.634945,2.295578 50.254158,3.551919 46.907677,4.893821 
	C35.129753,9.616632 28.109592,18.441553 24.040018,30.298471 
	C21.817484,36.773933 18.503424,42.898525 15.405238,49.041973 
	C13.036858,53.738274 11.228623,58.165165 12.787507,63.753319 
	C13.427464,66.047386 12.298110,69.940804 10.546335,71.597832 
	C4.206319,77.594917 2.815156,83.872543 6.728502,91.756226 
	C9.399108,97.136337 8.064083,98.990936 1.462933,99.950470 
z"/>
<path fill="#F9F9F9" opacity="1.000000" stroke="none" 
	d="
M128.738678,102.128586 
	C128.998993,101.828163 128.998993,101.914070 128.999496,101.957031 
	C129.000000,110.927780 129.000000,119.855560 129.000000,129.000000 
	C119.980263,129.000000 110.958786,129.000000 101.468658,129.000000 
	C102.797623,126.898308 104.595238,124.796608 106.079872,123.060837 
	C103.928276,120.559662 102.000435,118.318588 99.553772,115.474396 
	C104.265381,115.474396 107.514893,115.474396 110.252541,115.474396 
	C109.114487,111.704361 108.112946,108.386589 107.012115,104.739861 
	C114.457840,105.284096 116.194435,107.577988 116.268845,115.758598 
	C120.272972,113.650520 120.329430,113.033302 116.969772,104.595779 
	C121.876610,107.886497 125.644424,107.019707 128.738678,102.128586 
z"/>
<path fill="#E9E9E9" opacity="1.000000" stroke="none" 
	d="
M85.437500,129.000000 
	C85.000000,126.674469 85.000000,124.348946 85.000000,122.023415 
	C85.554253,121.950066 86.108498,121.876717 86.662750,121.803375 
	C88.500969,123.968979 90.339188,126.134583 92.088707,128.650085 
	C89.958336,129.000000 87.916664,129.000000 85.437500,129.000000 
z"/>
<path fill="#FBFBFB" opacity="1.000000" stroke="none" 
	d="
M45.969131,84.198212 
	C44.445728,82.495750 42.850986,80.974274 42.304993,79.140533 
	C41.509449,76.468674 41.690308,73.521538 41.064949,70.780731 
	C39.072872,62.049995 38.898540,54.061428 44.599468,46.002674 
	C47.370159,42.086060 47.657963,35.905186 47.769642,30.721334 
	C48.000328,20.013464 50.916725,17.611172 61.237366,20.980843 
	C61.673309,21.123180 62.135773,21.184309 62.968693,21.367434 
	C63.405563,18.700539 63.824837,16.141045 64.468643,12.210899 
	C65.001732,15.341945 65.304924,17.122667 65.631927,19.043280 
	C66.643379,19.043280 67.604294,19.070385 68.563309,19.039114 
	C78.784561,18.705826 82.501198,22.345793 82.091934,32.632378 
	C81.755112,41.097980 84.493164,48.507889 89.196716,55.370667 
	C90.000641,56.543636 91.058929,57.990223 90.983505,59.249542 
	C90.102745,73.955109 86.241203,86.953438 71.542702,94.149399 
	C64.299599,97.695404 52.886520,95.252640 48.414745,88.206947 
	C47.762024,87.178520 48.606438,85.199883 48.779690,83.441879 
	C47.993847,83.701668 47.180218,83.970634 45.969131,84.198212 
M72.041588,59.516598 
	C75.752762,62.298698 79.496071,62.392319 82.816048,59.081944 
	C85.614723,56.291351 86.028564,52.741455 83.735764,49.520924 
	C79.038506,42.923019 73.967422,46.858730 68.665268,49.602402 
	C69.594696,52.654438 70.559280,55.821922 72.041588,59.516598 
M45.080109,55.964138 
	C46.575649,59.809566 49.517982,62.347492 53.437225,61.190399 
	C55.977726,60.440353 58.976036,57.841450 59.724583,55.434978 
	C60.392738,53.286949 58.962090,49.460705 57.147316,47.867924 
	C55.491394,46.414562 51.852024,46.156090 49.490105,46.815491 
	C45.710686,47.870628 44.487221,51.287743 45.080109,55.964138 
z"/>
<path fill="#080808" opacity="1.000000" stroke="none" 
	d="
M71.782730,59.252998 
	C70.559280,55.821922 69.594696,52.654438 68.665268,49.602402 
	C73.967422,46.858730 79.038506,42.923019 83.735764,49.520924 
	C86.028564,52.741455 85.614723,56.291351 82.816048,59.081944 
	C79.496071,62.392319 75.752762,62.298698 71.782730,59.252998 
z"/>
<path fill="#050505" opacity="1.000000" stroke="none" 
	d="
M45.018341,55.563663 
	C44.487221,51.287743 45.710686,47.870628 49.490105,46.815491 
	C51.852024,46.156090 55.491394,46.414562 57.147316,47.867924 
	C58.962090,49.460705 60.392738,53.286949 59.724583,55.434978 
	C58.976036,57.841450 55.977726,60.440353 53.437225,61.190399 
	C49.517982,62.347492 46.575649,59.809566 45.018341,55.563663 
z"/>
</svg>