<svg version="1.1" id="Layer_1" xmlns="http://www.w3.org/2000/svg" xmlns:xlink="http://www.w3.org/1999/xlink" x="0px" y="0px"
	 width="100%" viewBox="0 0 1425 1431" enable-background="new 0 0 1425 1431" xml:space="preserve">
<path fill="#000000" opacity="1.000000" stroke="none" 
	d="
M1426.000000,1117.000000 
	C1426.000000,1118.066650 1426.000000,1119.133423 1425.626343,1120.601807 
	C1424.847412,1121.214600 1424.251343,1121.318726 1424.064209,1121.652344 
	C1416.152832,1135.752441 1406.051392,1147.999146 1393.395630,1158.107300 
	C1381.468872,1167.632935 1368.015625,1173.456299 1352.674805,1173.926636 
	C1338.586304,1174.358643 1325.685913,1169.936401 1313.577637,1162.948608 
	C1298.682373,1154.352173 1287.261108,1141.767822 1275.310303,1129.780640 
	C1265.022461,1119.461548 1254.732544,1109.143311 1244.317017,1098.954102 
	C1243.133667,1097.796631 1241.131714,1097.475830 1239.149414,1096.609741 
	C1240.305542,1099.628174 1241.046875,1101.927612 1242.047974,1104.107666 
	C1244.794922,1110.089844 1246.540527,1117.005249 1250.731323,1121.736572 
	C1256.597412,1128.359253 1264.410034,1133.231445 1271.215332,1139.056519 
	C1276.632446,1143.693359 1282.977295,1147.844238 1286.811401,1153.607300 
	C1294.718018,1165.491577 1301.859619,1177.996094 1308.146118,1190.819092 
	C1316.348633,1207.550537 1322.545166,1224.968750 1320.061890,1244.291016 
	C1318.474487,1256.642578 1312.450073,1265.933960 1301.619629,1271.653931 
	C1288.134644,1278.775635 1273.461060,1279.955078 1259.009766,1278.793457 
	C1262.762573,1277.435791 1267.301025,1276.557251 1271.005249,1274.306030 
	C1280.887451,1268.300049 1287.277222,1252.389282 1284.962646,1240.984009 
	C1283.007568,1231.350342 1281.336304,1221.641968 1278.927124,1212.121460 
	C1274.258911,1193.674561 1264.738770,1178.472168 1248.901855,1167.238281 
	C1236.463379,1158.414917 1222.547607,1153.283569 1208.175415,1149.156006 
	C1202.070068,1147.402954 1195.615601,1146.865601 1189.311157,1145.774170 
	C1188.786499,1148.740601 1188.107056,1150.955688 1188.045166,1153.187866 
	C1187.530518,1171.770020 1188.067139,1190.287964 1193.030396,1208.360229 
	C1197.570679,1224.892944 1203.140259,1240.914673 1219.003906,1250.439941 
	C1224.156128,1253.533813 1227.692383,1258.014038 1225.667480,1263.602661 
	C1224.318237,1267.326172 1220.319580,1270.933716 1216.605591,1272.799316 
	C1205.241577,1278.507568 1192.596313,1279.578003 1180.172607,1279.772705 
	C1170.780518,1279.919922 1161.255249,1278.556763 1151.969116,1276.873657 
	C1137.311646,1274.217163 1123.608887,1269.127808 1113.161743,1257.691040 
	C1112.156860,1256.590942 1110.921631,1255.701172 1109.793213,1254.713745 
	C1109.352905,1254.944946 1108.912598,1255.176025 1108.472290,1255.407227 
	C1109.314453,1262.002686 1110.003540,1268.622070 1111.027832,1275.189087 
	C1114.006958,1294.290161 1120.408447,1311.680176 1135.951172,1324.476929 
	C1145.519531,1332.354858 1156.456543,1336.512695 1168.797119,1336.976318 
	C1172.829590,1337.127808 1176.872314,1337.000000 1181.451416,1337.000000 
	C1180.203857,1339.552002 1179.511719,1341.362305 1178.501953,1342.973633 
	C1163.983154,1366.141357 1148.071045,1388.141235 1126.787231,1405.772217 
	C1115.259155,1415.321777 1102.991455,1423.522949 1088.566772,1427.926270 
	C1082.831177,1429.677124 1076.862549,1430.664917 1071.000000,1432.000000 
	C1065.645020,1432.000000 1060.290161,1432.000000 1054.351929,1431.631104 
	C1047.975220,1429.431519 1041.929443,1428.158936 1036.432495,1425.672607 
	C1013.814880,1415.442627 996.596802,1398.769775 983.000732,1378.420654 
	C973.979553,1364.918457 966.060242,1350.680054 957.576416,1336.653442 
	C955.309265,1339.296631 952.716797,1342.476074 949.958984,1345.504639 
	C942.067200,1354.171509 935.259583,1363.537964 930.933533,1374.529053 
	C925.605103,1388.067261 927.846619,1399.584839 940.539307,1407.903809 
	C944.737244,1410.655029 949.488159,1412.562256 954.475830,1415.105103 
	C948.207275,1420.924561 941.793701,1426.362793 933.813599,1428.511475 
	C917.487122,1432.907593 905.507629,1430.056885 899.073242,1411.596069 
	C892.279297,1392.103882 893.605652,1372.090332 898.387024,1352.618164 
	C904.352417,1328.323853 916.280273,1306.781250 933.286255,1288.255493 
	C938.810852,1282.237061 941.456970,1275.899780 938.421692,1267.585571 
	C936.839172,1263.250610 936.635254,1258.383667 936.024780,1253.728516 
	C934.606628,1242.913696 933.089966,1232.103882 932.034180,1221.251221 
	C930.495483,1205.434204 928.465942,1189.595581 928.198669,1173.740112 
	C927.781616,1149.003418 928.389221,1124.236694 929.105774,1099.498535 
	C929.523804,1085.061523 930.664001,1070.622192 932.085754,1056.243896 
	C933.703674,1039.881348 935.465332,1023.497925 938.142944,1007.285217 
	C940.978394,990.116760 944.890198,973.122620 948.494324,956.086792 
	C949.525757,951.211670 951.120972,946.455872 952.457642,941.645325 
	C951.989929,941.403076 951.522156,941.160889 951.054382,940.918640 
	C946.436584,945.711365 942.102722,950.822876 937.148071,955.237488 
	C921.602600,969.088440 906.411316,983.434021 889.991760,996.182861 
	C867.523254,1013.628296 844.077332,1029.817383 820.997925,1046.472412 
	C812.751770,1052.423096 804.822571,1059.034546 795.929565,1063.823120 
	C775.170105,1075.001343 752.058533,1077.608154 729.054199,1079.916016 
	C717.599426,1081.065308 706.051636,1081.942993 694.553955,1081.857910 
	C676.885376,1081.727417 659.042175,1082.007690 641.604431,1079.656128 
	C619.082275,1076.619019 598.709717,1066.586548 579.377930,1054.817993 
	C557.420044,1041.450684 539.244324,1023.414062 520.689819,1005.966003 
	C507.516968,993.578552 495.282776,980.189209 482.712433,967.167114 
	C479.227295,963.556702 476.037842,959.660767 472.203522,955.319336 
	C472.078400,956.909729 471.919617,957.424316 472.019012,957.883057 
	C475.496582,973.929688 479.223419,989.926270 482.425018,1006.027405 
	C484.949585,1018.723755 487.064972,1031.513794 488.934814,1044.324707 
	C490.886383,1057.695557 492.696960,1071.108154 493.894012,1084.562500 
	C495.307251,1100.447021 496.541077,1116.384521 496.876709,1132.319580 
	C497.426788,1158.437134 497.434845,1184.585327 493.977753,1210.569336 
	C492.458313,1221.989746 490.923126,1233.417603 488.952545,1244.765137 
	C487.736847,1251.765991 487.024994,1258.464844 492.517914,1263.995850 
	C503.038116,1274.589355 510.711182,1287.097412 517.683960,1300.167480 
	C526.554932,1316.795654 531.570312,1334.591797 532.771179,1353.225220 
	C533.388306,1362.799927 532.597351,1372.726318 530.640869,1382.118408 
	C529.219116,1388.943604 525.769226,1395.860107 521.517395,1401.434448 
	C517.443726,1406.775269 510.602417,1408.598877 503.482086,1408.037842 
	C491.411041,1407.086792 482.126343,1401.027588 473.016815,1392.525391 
	C474.912476,1391.776733 475.919281,1391.390503 476.917542,1390.983276 
	C497.515594,1382.580078 503.799927,1369.624634 496.033600,1350.461060 
	C490.224609,1336.127319 479.678955,1325.218872 469.469666,1313.808838 
	C468.848236,1314.776978 468.384888,1315.434814 467.986115,1316.129761 
	C460.311951,1329.502808 453.355957,1343.356323 444.793976,1356.133911 
	C434.538818,1371.437988 421.705505,1384.610840 406.374207,1395.140747 
	C390.009613,1406.380737 371.817261,1411.455444 352.278259,1408.788208 
	C330.119171,1405.763306 311.980316,1393.955322 295.717834,1379.175171 
	C282.904358,1367.529419 271.847778,1354.281250 261.846405,1340.207764 
	C256.303253,1332.407593 251.559326,1324.039551 245.900467,1315.046021 
	C268.460327,1315.676758 287.666534,1310.843750 300.857941,1292.553467 
	C312.984161,1275.739868 318.730347,1256.986938 317.235443,1235.119141 
	C315.179016,1236.203613 314.097290,1236.546753 313.303406,1237.226196 
	C297.173035,1251.032471 277.923553,1256.165771 257.290100,1256.893188 
	C248.565384,1257.200562 239.672836,1257.129883 231.088959,1255.767334 
	C223.124573,1254.503174 215.068939,1252.140503 207.783188,1248.711182 
	C199.270004,1244.703979 198.833557,1237.578979 205.609573,1230.930786 
	C207.704727,1228.875122 210.287567,1227.303711 212.307251,1225.186523 
	C216.649460,1220.634399 221.719391,1216.422485 224.812073,1211.096313 
	C235.995163,1191.836914 238.517349,1170.234497 239.912323,1148.527588 
	C240.449997,1140.161011 240.000000,1131.730957 240.000000,1121.701416 
	C225.136246,1126.124756 211.677734,1129.402222 198.757721,1134.146240 
	C179.490005,1141.220947 164.058548,1153.716797 155.161896,1172.402344 
	C147.043915,1189.452393 142.211777,1207.740234 143.139999,1226.880127 
	C143.639572,1237.181396 147.133408,1246.646729 156.832108,1252.211914 
	C159.886444,1253.964478 163.410858,1254.897949 166.720123,1256.206421 
	C166.624847,1256.691040 166.529587,1257.175659 166.434326,1257.660278 
	C158.241486,1256.772949 149.944275,1256.428833 141.878677,1254.879150 
	C127.434395,1252.104248 115.174988,1245.493530 109.571304,1230.938965 
	C105.012047,1219.097046 106.748962,1206.904541 109.564705,1194.848022 
	C113.253479,1179.053345 120.384323,1164.644653 128.258789,1150.719604 
	C133.401901,1141.624634 139.557693,1132.802856 146.705170,1125.220947 
	C154.620270,1116.824951 164.204453,1110.007080 173.009659,1102.441162 
	C174.926163,1100.794434 177.114624,1099.169556 178.316406,1097.046753 
	C180.841751,1092.586182 182.963623,1087.870850 184.912262,1083.121216 
	C185.875320,1080.773682 186.086182,1078.117676 186.637360,1075.601196 
	C186.082748,1075.209351 185.528152,1074.817505 184.973541,1074.425537 
	C176.784027,1081.981445 167.920853,1088.940186 160.566513,1097.236450 
	C150.133179,1109.006104 140.283218,1121.162476 127.729767,1130.929443 
	C110.670372,1144.202148 92.458687,1153.654907 70.061508,1150.895630 
	C64.060196,1150.156372 57.897408,1148.901489 52.357521,1146.576050 
	C33.675358,1138.733765 20.396811,1124.504517 9.016648,1108.250610 
	C6.375719,1104.478516 3.673843,1100.749023 1.000008,1097.000000 
	C1.000000,1096.555542 1.000000,1096.111084 1.458133,1095.333374 
	C4.415211,1095.002686 6.961100,1094.693237 9.405111,1095.060913 
	C21.055319,1096.813599 32.599232,1096.471924 44.122532,1094.021606 
	C52.832920,1092.169189 60.842125,1088.600708 66.997093,1082.297485 
	C76.759293,1072.299927 78.424080,1059.345459 76.800919,1046.313477 
	C74.906799,1031.106079 69.681061,1016.596558 62.849327,1002.956299 
	C52.944996,983.181458 43.846203,963.212891 40.644093,941.126953 
	C39.355637,932.240112 38.419502,923.251404 38.158279,914.284668 
	C37.989109,908.477966 39.425156,902.635986 39.980301,896.794373 
	C41.336308,882.525513 45.787292,869.109863 51.478859,856.109558 
	C57.853447,841.549072 66.542122,828.301575 76.602013,816.074890 
	C82.682587,808.684631 89.255165,801.514343 96.537987,795.344543 
	C105.793991,787.503296 115.518433,780.277283 122.972763,770.535706 
	C131.625626,759.227783 138.048813,746.734314 139.804642,732.611267 
	C141.579529,718.334900 139.289612,704.330811 132.704224,691.286194 
	C127.145638,680.275513 124.631134,668.364197 124.215546,656.279724 
	C123.850121,645.653564 124.908623,634.916870 126.085495,624.312012 
	C128.505386,602.506287 135.979416,582.094788 145.327011,562.475830 
	C155.300827,541.542542 167.676071,522.079773 185.149643,506.378143 
	C193.414368,498.951569 198.898682,489.534515 203.945511,479.912994 
	C220.165710,448.990173 231.954773,416.272156 242.415771,383.050293 
	C246.747864,369.292480 251.357849,355.588440 254.888702,341.619141 
	C262.179230,312.775208 271.578217,284.671417 284.151642,257.752319 
	C294.851898,234.843582 307.364380,212.914078 321.864807,192.077667 
	C335.445465,172.562973 350.933441,154.727570 367.170715,137.504822 
	C373.469604,130.823608 380.513977,124.776787 387.645020,118.963928 
	C399.729919,109.112968 411.839233,99.239029 424.503296,90.163177 
	C447.054291,74.001770 471.301086,60.672134 496.791260,49.727673 
	C520.777039,39.429142 544.822693,29.250519 569.059387,19.563032 
	C585.006531,13.188912 601.375183,7.932255 618.388611,4.958211 
	C624.632263,3.866785 630.798462,2.332359 637.000000,1.000003 
	C648.687561,1.000000 660.375122,1.000000 672.671631,1.388731 
	C686.668640,3.338221 699.303650,7.358946 711.507629,13.032222 
	C715.839417,15.045931 716.452820,18.198639 715.966125,22.247074 
	C714.624390,33.408043 713.235229,44.564358 712.029175,55.740257 
	C711.203552,63.390991 710.750000,71.081444 709.957764,78.736320 
	C708.714905,90.746170 707.290955,102.737167 706.013306,114.743561 
	C705.251709,121.900360 704.719727,129.082230 703.911987,136.233337 
	C702.686768,147.080261 701.218628,157.900070 700.031555,168.750854 
	C699.194763,176.400162 698.749573,184.091751 697.957458,191.746643 
	C696.714661,203.756180 695.186279,215.737793 694.082458,227.759094 
	C693.734985,231.542374 693.061951,232.742065 689.050232,231.090271 
	C674.983765,225.298584 660.922058,219.439789 646.590820,214.362137 
	C632.343384,209.314178 617.370239,206.828079 602.336548,206.245651 
	C593.487061,205.902802 584.356628,207.186661 575.679993,209.170822 
	C557.190369,213.398956 543.323486,224.246277 534.411560,241.128281 
	C525.841736,257.362183 522.119568,274.879669 522.133850,293.041443 
	C522.145630,308.046021 523.874756,323.050476 523.853821,338.053589 
	C523.831116,354.390167 523.244934,370.775604 521.823120,387.045197 
	C520.639832,400.584564 518.702576,414.174042 515.653564,427.408264 
	C510.539185,449.607605 503.409912,471.215698 494.447815,492.254730 
	C483.001404,519.125916 469.269501,544.742432 453.227600,569.059082 
	C443.791840,583.362000 433.008087,596.772949 422.979218,610.692078 
	C422.062714,611.964050 421.706238,614.108276 421.981567,615.692383 
	C423.501801,624.437866 425.386688,633.119324 426.980774,641.852905 
	C429.449524,655.378601 431.831329,668.920532 434.163147,682.470581 
	C436.497589,696.035522 438.823975,709.603271 440.966675,723.199280 
	C442.484222,732.828735 443.647644,742.513367 445.046600,752.162170 
	C446.653229,763.243591 448.426514,774.301270 449.973389,785.390747 
	C451.120850,793.617371 451.922363,801.891968 453.056183,810.120667 
	C454.962860,823.958496 457.176910,837.755676 458.950195,851.609802 
	C460.524567,863.910034 461.471527,876.291992 463.124084,888.580200 
	C463.705750,892.905334 464.395599,898.099915 467.064423,901.082642 
	C473.283508,908.033081 480.112427,914.812866 487.827759,919.964111 
	C500.292511,928.286621 509.529816,928.203003 521.678284,919.461182 
	C526.715088,915.836731 530.133545,909.975403 534.347229,905.183411 
	C535.092285,904.335999 536.129700,903.745728 537.032104,903.036743 
	C537.683167,904.070740 538.800171,905.063477 538.896057,906.146667 
	C539.159790,909.123596 538.988464,912.138550 539.001099,915.138428 
	C539.071411,931.868530 531.218018,943.461365 516.154602,950.376526 
	C514.821411,950.988464 513.468079,951.556274 512.011047,952.194153 
	C519.069397,959.707642 525.642883,966.930847 532.476868,973.898499 
	C536.863831,978.371094 541.621887,982.481018 546.235657,986.729492 
	C554.361023,994.211548 562.619263,1001.553528 570.612671,1009.173584 
	C584.383179,1022.300720 600.390259,1031.971802 617.549255,1039.838745 
	C633.005615,1046.925049 649.115479,1051.506348 666.323181,1050.983032 
	C685.829224,1050.389893 705.349976,1049.990356 724.827759,1048.870361 
	C735.357422,1048.264893 745.904846,1046.828369 756.272705,1044.862061 
	C767.140137,1042.801147 777.861877,1039.768311 786.984680,1032.985107 
	C793.495667,1028.144043 799.843811,1023.083862 806.360229,1018.250244 
	C831.843628,999.347778 857.664246,980.883423 882.754517,961.474060 
	C896.739197,950.655884 909.752625,938.536255 922.766785,926.529419 
	C929.020996,920.759338 934.821960,914.298096 939.820435,907.417664 
	C946.032898,898.866089 951.987061,889.938232 956.591187,880.462646 
	C960.752625,871.898254 962.756958,862.308044 966.073853,853.303284 
	C968.397034,846.996277 972.388184,841.137756 973.755859,834.681030 
	C976.241028,822.948914 977.380554,810.927673 978.983887,799.014038 
	C980.719849,786.115234 982.082520,773.160828 984.080750,760.304138 
	C986.815735,742.706970 989.814880,725.145813 993.031860,707.630005 
	C997.172974,685.082153 1001.674438,662.600708 1005.910889,640.069946 
	C1006.264343,638.189941 1006.523010,635.625000 1005.562988,634.278809 
	C1001.039429,627.935364 995.682007,622.170227 991.344666,615.713318 
	C979.757080,598.462830 967.910461,581.334229 957.375977,563.445129 
	C948.995972,549.214478 941.499512,534.302307 935.241089,519.024841 
	C927.603210,500.380188 921.012756,481.235718 915.184998,461.940277 
	C909.370117,442.687561 905.774902,422.837067 905.048218,402.644135 
	C904.451721,386.069336 903.627991,369.451935 904.223389,352.900879 
	C904.706543,339.469788 906.420959,326.190552 905.232727,312.604797 
	C903.852234,296.819885 901.043030,281.636780 895.090393,266.908081 
	C884.887085,241.662430 867.005371,223.759201 842.347046,213.320312 
	C815.145752,201.804901 786.396729,198.738876 757.037781,202.018417 
	C743.179199,203.566498 729.345215,205.334061 715.318604,207.024033 
	C715.859863,200.510513 716.346313,193.093536 717.120361,185.706726 
	C718.309753,174.355087 719.762573,163.031219 720.977051,151.682007 
	C721.795471,144.032913 722.298401,136.350082 723.116455,128.700928 
	C724.330200,117.351143 725.779480,106.026390 726.971802,94.674522 
	C727.792969,86.856094 728.244568,78.999092 729.047607,71.178474 
	C730.280945,59.167545 731.698303,47.175632 732.990845,35.170631 
	C733.735779,28.252968 733.872986,22.126991 742.489075,18.535574 
	C762.257019,10.295751 782.433716,8.006934 803.044006,12.201731 
	C829.387085,17.563290 853.116821,29.221466 874.769409,45.179424 
	C880.550964,49.440502 886.401306,53.950050 892.890137,56.842190 
	C908.827698,63.945686 925.372192,69.693314 941.274963,76.867729 
	C964.796692,87.479446 987.281677,100.178719 1007.919067,115.674774 
	C1023.818359,127.613197 1039.567139,140.005249 1053.827881,153.802628 
	C1068.550537,168.046707 1082.290771,183.541412 1094.802856,199.767456 
	C1106.868530,215.414627 1117.373047,232.360931 1127.553955,249.341721 
	C1139.874512,269.891113 1149.719849,291.798370 1157.551758,314.411957 
	C1164.159058,333.489166 1168.944580,353.189545 1174.929199,372.492340 
	C1181.384644,393.312805 1187.966309,414.106049 1195.093018,434.703461 
	C1204.018555,460.499329 1213.707886,486.050293 1228.031372,509.450043 
	C1232.491699,516.736877 1238.094482,523.377502 1243.612183,529.945984 
	C1247.587036,534.677795 1252.847290,538.375061 1256.563110,543.270935 
	C1269.442383,560.240540 1280.327637,578.386658 1288.088989,598.362854 
	C1298.262329,624.546997 1305.280884,651.130249 1303.180664,679.682007 
	C1302.199951,693.012634 1298.703491,705.282837 1293.349976,717.356567 
	C1287.574707,730.381653 1285.045288,744.167297 1288.211914,758.236816 
	C1291.976562,774.964294 1300.042603,789.773254 1312.380371,801.657776 
	C1324.916870,813.733582 1339.590820,823.635864 1350.120483,837.747803 
	C1357.446045,847.565430 1364.817139,857.484619 1370.828979,868.115662 
	C1380.327393,884.911926 1386.109863,903.046021 1388.179199,922.467957 
	C1389.749390,937.204651 1389.378174,951.797791 1386.781372,966.190552 
	C1383.460815,984.595825 1376.416626,1001.827820 1368.150635,1018.635742 
	C1358.274658,1038.718140 1348.823853,1059.158325 1351.162720,1082.454224 
	C1351.707153,1087.876709 1353.439697,1093.578979 1356.123779,1098.300903 
	C1361.030640,1106.932861 1368.855957,1112.810669 1378.637329,1114.864868 
	C1387.972900,1116.825439 1397.514404,1118.198608 1407.029297,1118.772827 
	C1413.294312,1119.150879 1419.672485,1117.656128 1426.000000,1117.000000 
z"/>
<path fill="#FFFFFF" opacity="1.000000" stroke="none" 
	d="
M1426.000000,1116.531372 
	C1419.672485,1117.656128 1413.294312,1119.150879 1407.029297,1118.772827 
	C1397.514404,1118.198608 1387.972900,1116.825439 1378.637329,1114.864868 
	C1368.855957,1112.810669 1361.030640,1106.932861 1356.123779,1098.300903 
	C1353.439697,1093.578979 1351.707153,1087.876709 1351.162720,1082.454224 
	C1348.823853,1059.158325 1358.274658,1038.718140 1368.150635,1018.635742 
	C1376.416626,1001.827820 1383.460815,984.595825 1386.781372,966.190552 
	C1389.378174,951.797791 1389.749390,937.204651 1388.179199,922.467957 
	C1386.109863,903.046021 1380.327393,884.911926 1370.828979,868.115662 
	C1364.817139,857.484619 1357.446045,847.565430 1350.120483,837.747803 
	C1339.590820,823.635864 1324.916870,813.733582 1312.380371,801.657776 
	C1300.042603,789.773254 1291.976562,774.964294 1288.211914,758.236816 
	C1285.045288,744.167297 1287.574707,730.381653 1293.349976,717.356567 
	C1298.703491,705.282837 1302.199951,693.012634 1303.180664,679.682007 
	C1305.280884,651.130249 1298.262329,624.546997 1288.088989,598.362854 
	C1280.327637,578.386658 1269.442383,560.240540 1256.563110,543.270935 
	C1252.847290,538.375061 1247.587036,534.677795 1243.612183,529.945984 
	C1238.094482,523.377502 1232.491699,516.736877 1228.031372,509.450043 
	C1213.707886,486.050293 1204.018555,460.499329 1195.093018,434.703461 
	C1187.966309,414.106049 1181.384644,393.312805 1174.929199,372.492340 
	C1168.944580,353.189545 1164.159058,333.489166 1157.551758,314.411957 
	C1149.719849,291.798370 1139.874512,269.891113 1127.553955,249.341721 
	C1117.373047,232.360931 1106.868530,215.414627 1094.802856,199.767456 
	C1082.290771,183.541412 1068.550537,168.046707 1053.827881,153.802628 
	C1039.567139,140.005249 1023.818359,127.613197 1007.919067,115.674774 
	C987.281677,100.178719 964.796692,87.479446 941.274963,76.867729 
	C925.372192,69.693314 908.827698,63.945686 892.890137,56.842190 
	C886.401306,53.950050 880.550964,49.440502 874.769409,45.179424 
	C853.116821,29.221466 829.387085,17.563290 803.044006,12.201731 
	C782.433716,8.006934 762.257019,10.295751 742.489075,18.535574 
	C733.872986,22.126991 733.735779,28.252968 732.990845,35.170631 
	C731.698303,47.175632 730.280945,59.167545 729.047607,71.178474 
	C728.244568,78.999092 727.792969,86.856094 726.971802,94.674522 
	C725.779480,106.026390 724.330200,117.351143 723.116455,128.700928 
	C722.298401,136.350082 721.795471,144.032913 720.977051,151.682007 
	C719.762573,163.031219 718.309753,174.355087 717.120361,185.706726 
	C716.346313,193.093536 715.859863,200.510513 715.318604,207.024033 
	C729.345215,205.334061 743.179199,203.566498 757.037781,202.018417 
	C786.396729,198.738876 815.145752,201.804901 842.347046,213.320312 
	C867.005371,223.759201 884.887085,241.662430 895.090393,266.908081 
	C901.043030,281.636780 903.852234,296.819885 905.232727,312.604797 
	C906.420959,326.190552 904.706543,339.469788 904.223389,352.900879 
	C903.627991,369.451935 904.451721,386.069336 905.048218,402.644135 
	C905.774902,422.837067 909.370117,442.687561 915.184998,461.940277 
	C921.012756,481.235718 927.603210,500.380188 935.241089,519.024841 
	C941.499512,534.302307 948.995972,549.214478 957.375977,563.445129 
	C967.910461,581.334229 979.757080,598.462830 991.344666,615.713318 
	C995.682007,622.170227 1001.039429,627.935364 1005.562988,634.278809 
	C1006.523010,635.625000 1006.264343,638.189941 1005.910889,640.069946 
	C1001.674438,662.600708 997.172974,685.082153 993.031860,707.630005 
	C989.814880,725.145813 986.815735,742.706970 984.080750,760.304138 
	C982.082520,773.160828 980.719849,786.115234 978.983887,799.014038 
	C977.380554,810.927673 976.241028,822.948914 973.755859,834.681030 
	C972.388184,841.137756 968.397034,846.996277 966.073853,853.303284 
	C962.756958,862.308044 960.752625,871.898254 956.591187,880.462646 
	C951.987061,889.938232 946.032898,898.866089 939.820435,907.417664 
	C934.821960,914.298096 929.020996,920.759338 922.766785,926.529419 
	C909.752625,938.536255 896.739197,950.655884 882.754517,961.474060 
	C857.664246,980.883423 831.843628,999.347778 806.360229,1018.250244 
	C799.843811,1023.083862 793.495667,1028.144043 786.984680,1032.985107 
	C777.861877,1039.768311 767.140137,1042.801147 756.272705,1044.862061 
	C745.904846,1046.828369 735.357422,1048.264893 724.827759,1048.870361 
	C705.349976,1049.990356 685.829224,1050.389893 666.323181,1050.983032 
	C649.115479,1051.506348 633.005615,1046.925049 617.549255,1039.838745 
	C600.390259,1031.971802 584.383179,1022.300720 570.612671,1009.173584 
	C562.619263,1001.553528 554.361023,994.211548 546.235657,986.729492 
	C541.621887,982.481018 536.863831,978.371094 532.476868,973.898499 
	C525.642883,966.930847 519.069397,959.707642 512.011047,952.194153 
	C513.468079,951.556274 514.821411,950.988464 516.154602,950.376526 
	C531.218018,943.461365 539.071411,931.868530 539.001099,915.138428 
	C538.988464,912.138550 539.159790,909.123596 538.896057,906.146667 
	C538.800171,905.063477 537.683167,904.070740 537.032104,903.036743 
	C536.129700,903.745728 535.092285,904.335999 534.347229,905.183411 
	C530.133545,909.975403 526.715088,915.836731 521.678284,919.461182 
	C509.529816,928.203003 500.292511,928.286621 487.827759,919.964111 
	C480.112427,914.812866 473.283508,908.033081 467.064423,901.082642 
	C464.395599,898.099915 463.705750,892.905334 463.124084,888.580200 
	C461.471527,876.291992 460.524567,863.910034 458.950195,851.609802 
	C457.176910,837.755676 454.962860,823.958496 453.056183,810.120667 
	C451.922363,801.891968 451.120850,793.617371 449.973389,785.390747 
	C448.426514,774.301270 446.653229,763.243591 445.046600,752.162170 
	C443.647644,742.513367 442.484222,732.828735 440.966675,723.199280 
	C438.823975,709.603271 436.497589,696.035522 434.163147,682.470581 
	C431.831329,668.920532 429.449524,655.378601 426.980774,641.852905 
	C425.386688,633.119324 423.501801,624.437866 421.981567,615.692383 
	C421.706238,614.108276 422.062714,611.964050 422.979218,610.692078 
	C433.008087,596.772949 443.791840,583.362000 453.227600,569.059082 
	C469.269501,544.742432 483.001404,519.125916 494.447815,492.254730 
	C503.409912,471.215698 510.539185,449.607605 515.653564,427.408264 
	C518.702576,414.174042 520.639832,400.584564 521.823120,387.045197 
	C523.244934,370.775604 523.831116,354.390167 523.853821,338.053589 
	C523.874756,323.050476 522.145630,308.046021 522.133850,293.041443 
	C522.119568,274.879669 525.841736,257.362183 534.411560,241.128281 
	C543.323486,224.246277 557.190369,213.398956 575.679993,209.170822 
	C584.356628,207.186661 593.487061,205.902802 602.336548,206.245651 
	C617.370239,206.828079 632.343384,209.314178 646.590820,214.362137 
	C660.922058,219.439789 674.983765,225.298584 689.050232,231.090271 
	C693.061951,232.742065 693.734985,231.542374 694.082458,227.759094 
	C695.186279,215.737793 696.714661,203.756180 697.957458,191.746643 
	C698.749573,184.091751 699.194763,176.400162 700.031555,168.750854 
	C701.218628,157.900070 702.686768,147.080261 703.911987,136.233337 
	C704.719727,129.082230 705.251709,121.900360 706.013306,114.743561 
	C707.290955,102.737167 708.714905,90.746170 709.957764,78.736320 
	C710.750000,71.081444 711.203552,63.390991 712.029175,55.740257 
	C713.235229,44.564358 714.624390,33.408043 715.966125,22.247074 
	C716.452820,18.198639 715.839417,15.045931 711.507629,13.032222 
	C699.303650,7.358946 686.668640,3.338221 673.140320,1.388731 
	C923.941284,1.000000 1174.882568,1.000000 1426.000000,1.000000 
	C1426.000000,372.687561 1426.000000,744.375183 1426.000000,1116.531372 
M913.008545,525.514282 
	C897.575256,509.636383 878.654785,500.536133 856.744019,499.167145 
	C823.534729,497.092255 797.031799,510.333466 777.581787,537.176086 
	C774.985107,535.991577 772.853577,534.882080 770.625000,534.025024 
	C757.112732,528.828369 743.118347,526.318604 728.696289,524.701660 
	C714.877563,523.152405 701.332153,524.455444 687.957886,526.355530 
	C675.174744,528.171692 662.714172,532.479492 650.252869,536.168457 
	C647.478638,536.989807 646.529358,535.970886 645.027649,534.458923 
	C638.517090,527.903748 632.590942,520.545959 625.266907,515.063782 
	C605.642029,500.374329 582.969177,495.985809 559.228577,500.249054 
	C538.663574,503.942047 521.124146,513.948975 507.762909,530.660339 
	C489.601105,553.375916 484.042725,578.920959 490.572418,606.980774 
	C494.784119,625.079651 504.184296,640.230652 518.654297,652.230530 
	C541.643982,671.295715 567.555115,677.046997 596.463074,670.178345 
	C614.707031,665.843506 629.509460,656.171143 641.640930,641.937378 
	C654.524292,626.821411 660.867920,609.280090 661.960571,589.698364 
	C662.642944,577.469299 660.248230,565.630798 656.122253,553.623535 
	C694.013000,541.074036 731.486206,537.239258 769.259888,553.648499 
	C762.948425,570.374451 761.040955,587.131653 765.032593,604.259949 
	C771.332397,631.293091 786.510376,651.670715 811.566040,663.982971 
	C829.243225,672.669556 847.831604,675.195007 867.401245,671.101379 
	C894.316833,665.471008 914.109741,650.680359 927.017090,626.567627 
	C935.968384,609.845337 938.680908,592.085754 936.082336,573.271179 
	C933.562561,555.026489 925.651306,539.565918 913.008545,525.514282 
z"/>
<path fill="#FFFFFF" opacity="1.000000" stroke="none" 
	d="
M1.000008,1097.468628 
	C3.673843,1100.749023 6.375719,1104.478516 9.016648,1108.250610 
	C20.396811,1124.504517 33.675358,1138.733765 52.357521,1146.576050 
	C57.897408,1148.901489 64.060196,1150.156372 70.061508,1150.895630 
	C92.458687,1153.654907 110.670372,1144.202148 127.729767,1130.929443 
	C140.283218,1121.162476 150.133179,1109.006104 160.566513,1097.236450 
	C167.920853,1088.940186 176.784027,1081.981445 184.973541,1074.425537 
	C185.528152,1074.817505 186.082748,1075.209351 186.637360,1075.601196 
	C186.086182,1078.117676 185.875320,1080.773682 184.912262,1083.121216 
	C182.963623,1087.870850 180.841751,1092.586182 178.316406,1097.046753 
	C177.114624,1099.169556 174.926163,1100.794434 173.009659,1102.441162 
	C164.204453,1110.007080 154.620270,1116.824951 146.705170,1125.220947 
	C139.557693,1132.802856 133.401901,1141.624634 128.258789,1150.719604 
	C120.384323,1164.644653 113.253479,1179.053345 109.564705,1194.848022 
	C106.748962,1206.904541 105.012047,1219.097046 109.571304,1230.938965 
	C115.174988,1245.493530 127.434395,1252.104248 141.878677,1254.879150 
	C149.944275,1256.428833 158.241486,1256.772949 166.434326,1257.660278 
	C166.529587,1257.175659 166.624847,1256.691040 166.720123,1256.206421 
	C163.410858,1254.897949 159.886444,1253.964478 156.832108,1252.211914 
	C147.133408,1246.646729 143.639572,1237.181396 143.139999,1226.880127 
	C142.211777,1207.740234 147.043915,1189.452393 155.161896,1172.402344 
	C164.058548,1153.716797 179.490005,1141.220947 198.757721,1134.146240 
	C211.677734,1129.402222 225.136246,1126.124756 240.000000,1121.701416 
	C240.000000,1131.730957 240.449997,1140.161011 239.912323,1148.527588 
	C238.517349,1170.234497 235.995163,1191.836914 224.812073,1211.096313 
	C221.719391,1216.422485 216.649460,1220.634399 212.307251,1225.186523 
	C210.287567,1227.303711 207.704727,1228.875122 205.609573,1230.930786 
	C198.833557,1237.578979 199.270004,1244.703979 207.783188,1248.711182 
	C215.068939,1252.140503 223.124573,1254.503174 231.088959,1255.767334 
	C239.672836,1257.129883 248.565384,1257.200562 257.290100,1256.893188 
	C277.923553,1256.165771 297.173035,1251.032471 313.303406,1237.226196 
	C314.097290,1236.546753 315.179016,1236.203613 317.235443,1235.119141 
	C318.730347,1256.986938 312.984161,1275.739868 300.857941,1292.553467 
	C287.666534,1310.843750 268.460327,1315.676758 245.900467,1315.046021 
	C251.559326,1324.039551 256.303253,1332.407593 261.846405,1340.207764 
	C271.847778,1354.281250 282.904358,1367.529419 295.717834,1379.175171 
	C311.980316,1393.955322 330.119171,1405.763306 352.278259,1408.788208 
	C371.817261,1411.455444 390.009613,1406.380737 406.374207,1395.140747 
	C421.705505,1384.610840 434.538818,1371.437988 444.793976,1356.133911 
	C453.355957,1343.356323 460.311951,1329.502808 467.986115,1316.129761 
	C468.384888,1315.434814 468.848236,1314.776978 469.469666,1313.808838 
	C479.678955,1325.218872 490.224609,1336.127319 496.033600,1350.461060 
	C503.799927,1369.624634 497.515594,1382.580078 476.917542,1390.983276 
	C475.919281,1391.390503 474.912476,1391.776733 473.016815,1392.525391 
	C482.126343,1401.027588 491.411041,1407.086792 503.482086,1408.037842 
	C510.602417,1408.598877 517.443726,1406.775269 521.517395,1401.434448 
	C525.769226,1395.860107 529.219116,1388.943604 530.640869,1382.118408 
	C532.597351,1372.726318 533.388306,1362.799927 532.771179,1353.225220 
	C531.570312,1334.591797 526.554932,1316.795654 517.683960,1300.167480 
	C510.711182,1287.097412 503.038116,1274.589355 492.517914,1263.995850 
	C487.024994,1258.464844 487.736847,1251.765991 488.952545,1244.765137 
	C490.923126,1233.417603 492.458313,1221.989746 493.977753,1210.569336 
	C497.434845,1184.585327 497.426788,1158.437134 496.876709,1132.319580 
	C496.541077,1116.384521 495.307251,1100.447021 493.894012,1084.562500 
	C492.696960,1071.108154 490.886383,1057.695557 488.934814,1044.324707 
	C487.064972,1031.513794 484.949585,1018.723755 482.425018,1006.027405 
	C479.223419,989.926270 475.496582,973.929688 472.019012,957.883057 
	C471.919617,957.424316 472.078400,956.909729 472.203522,955.319336 
	C476.037842,959.660767 479.227295,963.556702 482.712433,967.167114 
	C495.282776,980.189209 507.516968,993.578552 520.689819,1005.966003 
	C539.244324,1023.414062 557.420044,1041.450684 579.377930,1054.817993 
	C598.709717,1066.586548 619.082275,1076.619019 641.604431,1079.656128 
	C659.042175,1082.007690 676.885376,1081.727417 694.553955,1081.857910 
	C706.051636,1081.942993 717.599426,1081.065308 729.054199,1079.916016 
	C752.058533,1077.608154 775.170105,1075.001343 795.929565,1063.823120 
	C804.822571,1059.034546 812.751770,1052.423096 820.997925,1046.472412 
	C844.077332,1029.817383 867.523254,1013.628296 889.991760,996.182861 
	C906.411316,983.434021 921.602600,969.088440 937.148071,955.237488 
	C942.102722,950.822876 946.436584,945.711365 951.054382,940.918640 
	C951.522156,941.160889 951.989929,941.403076 952.457642,941.645325 
	C951.120972,946.455872 949.525757,951.211670 948.494324,956.086792 
	C944.890198,973.122620 940.978394,990.116760 938.142944,1007.285217 
	C935.465332,1023.497925 933.703674,1039.881348 932.085754,1056.243896 
	C930.664001,1070.622192 929.523804,1085.061523 929.105774,1099.498535 
	C928.389221,1124.236694 927.781616,1149.003418 928.198669,1173.740112 
	C928.465942,1189.595581 930.495483,1205.434204 932.034180,1221.251221 
	C933.089966,1232.103882 934.606628,1242.913696 936.024780,1253.728516 
	C936.635254,1258.383667 936.839172,1263.250610 938.421692,1267.585571 
	C941.456970,1275.899780 938.810852,1282.237061 933.286255,1288.255493 
	C916.280273,1306.781250 904.352417,1328.323853 898.387024,1352.618164 
	C893.605652,1372.090332 892.279297,1392.103882 899.073242,1411.596069 
	C905.507629,1430.056885 917.487122,1432.907593 933.813599,1428.511475 
	C941.793701,1426.362793 948.207275,1420.924561 954.475830,1415.105103 
	C949.488159,1412.562256 944.737244,1410.655029 940.539307,1407.903809 
	C927.846619,1399.584839 925.605103,1388.067261 930.933533,1374.529053 
	C935.259583,1363.537964 942.067200,1354.171509 949.958984,1345.504639 
	C952.716797,1342.476074 955.309265,1339.296631 957.576416,1336.653442 
	C966.060242,1350.680054 973.979553,1364.918457 983.000732,1378.420654 
	C996.596802,1398.769775 1013.814880,1415.442627 1036.432495,1425.672607 
	C1041.929443,1428.158936 1047.975220,1429.431519 1053.884277,1431.631104 
	C703.110596,1432.000000 352.221222,1432.000000 1.000000,1432.000000 
	C1.000000,1320.645996 1.000000,1209.291626 1.000008,1097.468628 
z"/>
<path fill="#FFFFFF" opacity="1.000000" stroke="none" 
	d="
M636.531372,1.000003 
	C630.798462,2.332359 624.632263,3.866785 618.388611,4.958211 
	C601.375183,7.932255 585.006531,13.188912 569.059387,19.563032 
	C544.822693,29.250519 520.777039,39.429142 496.791260,49.727673 
	C471.301086,60.672134 447.054291,74.001770 424.503296,90.163177 
	C411.839233,99.239029 399.729919,109.112968 387.645020,118.963928 
	C380.513977,124.776787 373.469604,130.823608 367.170715,137.504822 
	C350.933441,154.727570 335.445465,172.562973 321.864807,192.077667 
	C307.364380,212.914078 294.851898,234.843582 284.151642,257.752319 
	C271.578217,284.671417 262.179230,312.775208 254.888702,341.619141 
	C251.357849,355.588440 246.747864,369.292480 242.415771,383.050293 
	C231.954773,416.272156 220.165710,448.990173 203.945511,479.912994 
	C198.898682,489.534515 193.414368,498.951569 185.149643,506.378143 
	C167.676071,522.079773 155.300827,541.542542 145.327011,562.475830 
	C135.979416,582.094788 128.505386,602.506287 126.085495,624.312012 
	C124.908623,634.916870 123.850121,645.653564 124.215546,656.279724 
	C124.631134,668.364197 127.145638,680.275513 132.704224,691.286194 
	C139.289612,704.330811 141.579529,718.334900 139.804642,732.611267 
	C138.048813,746.734314 131.625626,759.227783 122.972763,770.535706 
	C115.518433,780.277283 105.793991,787.503296 96.537987,795.344543 
	C89.255165,801.514343 82.682587,808.684631 76.602013,816.074890 
	C66.542122,828.301575 57.853447,841.549072 51.478859,856.109558 
	C45.787292,869.109863 41.336308,882.525513 39.980301,896.794373 
	C39.425156,902.635986 37.989109,908.477966 38.158279,914.284668 
	C38.419502,923.251404 39.355637,932.240112 40.644093,941.126953 
	C43.846203,963.212891 52.944996,983.181458 62.849327,1002.956299 
	C69.681061,1016.596558 74.906799,1031.106079 76.800919,1046.313477 
	C78.424080,1059.345459 76.759293,1072.299927 66.997093,1082.297485 
	C60.842125,1088.600708 52.832920,1092.169189 44.122532,1094.021606 
	C32.599232,1096.471924 21.055319,1096.813599 9.405111,1095.060913 
	C6.961100,1094.693237 4.415211,1095.002686 1.458133,1095.000000 
	C1.000000,730.425537 1.000000,365.851074 1.000000,1.000000 
	C212.687485,1.000000 424.375092,1.000000 636.531372,1.000003 
z"/>
<path fill="#FFFFFF" opacity="1.000000" stroke="none" 
	d="
M1071.468628,1432.000000 
	C1076.862549,1430.664917 1082.831177,1429.677124 1088.566772,1427.926270 
	C1102.991455,1423.522949 1115.259155,1415.321777 1126.787231,1405.772217 
	C1148.071045,1388.141235 1163.983154,1366.141357 1178.501953,1342.973633 
	C1179.511719,1341.362305 1180.203857,1339.552002 1181.451416,1337.000000 
	C1176.872314,1337.000000 1172.829590,1337.127808 1168.797119,1336.976318 
	C1156.456543,1336.512695 1145.519531,1332.354858 1135.951172,1324.476929 
	C1120.408447,1311.680176 1114.006958,1294.290161 1111.027832,1275.189087 
	C1110.003540,1268.622070 1109.314453,1262.002686 1108.472290,1255.407227 
	C1108.912598,1255.176025 1109.352905,1254.944946 1109.793213,1254.713745 
	C1110.921631,1255.701172 1112.156860,1256.590942 1113.161743,1257.691040 
	C1123.608887,1269.127808 1137.311646,1274.217163 1151.969116,1276.873657 
	C1161.255249,1278.556763 1170.780518,1279.919922 1180.172607,1279.772705 
	C1192.596313,1279.578003 1205.241577,1278.507568 1216.605591,1272.799316 
	C1220.319580,1270.933716 1224.318237,1267.326172 1225.667480,1263.602661 
	C1227.692383,1258.014038 1224.156128,1253.533813 1219.003906,1250.439941 
	C1203.140259,1240.914673 1197.570679,1224.892944 1193.030396,1208.360229 
	C1188.067139,1190.287964 1187.530518,1171.770020 1188.045166,1153.187866 
	C1188.107056,1150.955688 1188.786499,1148.740601 1189.311157,1145.774170 
	C1195.615601,1146.865601 1202.070068,1147.402954 1208.175415,1149.156006 
	C1222.547607,1153.283569 1236.463379,1158.414917 1248.901855,1167.238281 
	C1264.738770,1178.472168 1274.258911,1193.674561 1278.927124,1212.121460 
	C1281.336304,1221.641968 1283.007568,1231.350342 1284.962646,1240.984009 
	C1287.277222,1252.389282 1280.887451,1268.300049 1271.005249,1274.306030 
	C1267.301025,1276.557251 1262.762573,1277.435791 1259.009766,1278.793457 
	C1273.461060,1279.955078 1288.134644,1278.775635 1301.619629,1271.653931 
	C1312.450073,1265.933960 1318.474487,1256.642578 1320.061890,1244.291016 
	C1322.545166,1224.968750 1316.348633,1207.550537 1308.146118,1190.819092 
	C1301.859619,1177.996094 1294.718018,1165.491577 1286.811401,1153.607300 
	C1282.977295,1147.844238 1276.632446,1143.693359 1271.215332,1139.056519 
	C1264.410034,1133.231445 1256.597412,1128.359253 1250.731323,1121.736572 
	C1246.540527,1117.005249 1244.794922,1110.089844 1242.047974,1104.107666 
	C1241.046875,1101.927612 1240.305542,1099.628174 1239.149414,1096.609741 
	C1241.131714,1097.475830 1243.133667,1097.796631 1244.317017,1098.954102 
	C1254.732544,1109.143311 1265.022461,1119.461548 1275.310303,1129.780640 
	C1287.261108,1141.767822 1298.682373,1154.352173 1313.577637,1162.948608 
	C1325.685913,1169.936401 1338.586304,1174.358643 1352.674805,1173.926636 
	C1368.015625,1173.456299 1381.468872,1167.632935 1393.395630,1158.107300 
	C1406.051392,1147.999146 1416.152832,1135.752441 1424.064209,1121.652344 
	C1424.251343,1121.318726 1424.847412,1121.214600 1425.626343,1121.001709 
	C1426.000000,1224.598511 1426.000000,1328.197144 1426.000000,1432.000000 
	C1307.979126,1432.000000 1189.958252,1432.000000 1071.468628,1432.000000 
z"/>
<path fill="#000000" opacity="1.000000" stroke="none" 
	d="
M913.265625,525.764404 
	C925.651306,539.565918 933.562561,555.026489 936.082336,573.271179 
	C938.680908,592.085754 935.968384,609.845337 927.017090,626.567627 
	C914.109741,650.680359 894.316833,665.471008 867.401245,671.101379 
	C847.831604,675.195007 829.243225,672.669556 811.566040,663.982971 
	C786.510376,651.670715 771.332397,631.293091 765.032593,604.259949 
	C761.040955,587.131653 762.948425,570.374451 769.259888,553.648499 
	C731.486206,537.239258 694.013000,541.074036 656.122253,553.623535 
	C660.248230,565.630798 662.642944,577.469299 661.960571,589.698364 
	C660.867920,609.280090 654.524292,626.821411 641.640930,641.937378 
	C629.509460,656.171143 614.707031,665.843506 596.463074,670.178345 
	C567.555115,677.046997 541.643982,671.295715 518.654297,652.230530 
	C504.184296,640.230652 494.784119,625.079651 490.572418,606.980774 
	C484.042725,578.920959 489.601105,553.375916 507.762909,530.660339 
	C521.124146,513.948975 538.663574,503.942047 559.228577,500.249054 
	C582.969177,495.985809 605.642029,500.374329 625.266907,515.063782 
	C632.590942,520.545959 638.517090,527.903748 645.027649,534.458923 
	C646.529358,535.970886 647.478638,536.989807 650.252869,536.168457 
	C662.714172,532.479492 675.174744,528.171692 687.957886,526.355530 
	C701.332153,524.455444 714.877563,523.152405 728.696289,524.701660 
	C743.118347,526.318604 757.112732,528.828369 770.625000,534.025024 
	C772.853577,534.882080 774.985107,535.991577 777.581787,537.176086 
	C797.031799,510.333466 823.534729,497.092255 856.744019,499.167145 
	C878.654785,500.536133 897.575256,509.636383 913.265625,525.764404 
z"/>
</svg>